# xmcd
#
# Track frame offsets: 
#        150
#        1748
#        20802
#        43215
#        65663
#        86854
#        105395
#        134599
#        156493
#        187482
#        208918
#        233804
#        250991
#        270807
#
# Disc length: 3902 seconds
#
# Revision: 1
# Processed by: cddbd v1.5.2PL0 Copyright (c) Steve Scherf et al.
# Submitted via: ExactAudioCopy v0.95b4
#
DISCID=cf0f3c0e
DTITLE=Imre Kertész - Roman eines Schicksallosen CD1
DYEAR=1999
DGENRE=Lesung
TTITLE0=Ansage
TTITLE1=Roman eines Schicksallosen 01
TTITLE2=Roman eines Schicksallosen 02
TTITLE3=Roman eines Schicksallosen 03
TTITLE4=Roman eines Schicksallosen 04
TTITLE5=Roman eines Schicksallosen 05
TTITLE6=Roman eines Schicksallosen 06
TTITLE7=Roman eines Schicksallosen 07
TTITLE8=Roman eines Schicksallosen 08
TTITLE9=Roman eines Schicksallosen 09
TTITLE10=Roman eines Schicksallosen 10
TTITLE11=Roman eines Schicksallosen 11
TTITLE12=Roman eines Schicksallosen 12
TTITLE13=Roman eines Schicksallosen 13
EXTD=YEAR: 1999
EXTT0=
EXTT1=
EXTT2=
EXTT3=
EXTT4=
EXTT5=
EXTT6=
EXTT7=
EXTT8=
EXTT9=
EXTT10=
EXTT11=
EXTT12=
EXTT13=
PLAYORDER=
